<svg width="1280" height="720" viewBox="0 0 1280 720" xmlns="http://www.w3.org/2000/svg">
  <defs>
    <linearGradient id="bg" x1="0" y1="0" x2="1" y2="1">
      <stop offset="0" stop-color="#f8fafc" />
      <stop offset="1" stop-color="#e2e8f0" />
    </linearGradient>
  </defs>
  <rect width="1280" height="720" fill="url(#bg)" />

  <rect x="70" y="50" width="1140" height="90" rx="16" fill="#0f172a" />
  <text x="100" y="105" font-family="Arial, sans-serif" font-size="28" fill="#ffffff">Real-Time Chat &amp; Collaboration</text>
  <text x="100" y="130" font-family="Arial, sans-serif" font-size="14" fill="#cbd5f5">WebSocket + Kafka fan-out + PostgreSQL history</text>

  <rect x="70" y="160" width="300" height="500" rx="16" fill="#ffffff" />
  <text x="100" y="200" font-family="Arial, sans-serif" font-size="16" fill="#0f172a">Rooms</text>
  <rect x="100" y="220" width="240" height="44" rx="10" fill="#f1f5f9" />
  <rect x="100" y="274" width="240" height="44" rx="10" fill="#f1f5f9" />
  <rect x="100" y="328" width="240" height="44" rx="10" fill="#f1f5f9" />
  <rect x="100" y="382" width="240" height="44" rx="10" fill="#e2e8f0" />

  <rect x="390" y="160" width="820" height="500" rx="16" fill="#ffffff" />
  <text x="420" y="200" font-family="Arial, sans-serif" font-size="16" fill="#0f172a"># general</text>

  <rect x="420" y="230" width="740" height="70" rx="12" fill="#f8fafc" />
  <text x="440" y="260" font-family="Arial, sans-serif" font-size="13" fill="#0f172a">Alex</text>
  <text x="440" y="282" font-family="Arial, sans-serif" font-size="12" fill="#475569">Deploy finished. Metrics look good.</text>

  <rect x="420" y="320" width="740" height="70" rx="12" fill="#f8fafc" />
  <text x="440" y="350" font-family="Arial, sans-serif" font-size="13" fill="#0f172a">Mira</text>
  <text x="440" y="372" font-family="Arial, sans-serif" font-size="12" fill="#475569">Inventory sync is green across regions.</text>

  <rect x="420" y="560" width="740" height="70" rx="12" fill="#f1f5f9" />
  <text x="440" y="600" font-family="Arial, sans-serif" font-size="12" fill="#94a3b8">Type a message...</text>
</svg>
