<svg xmlns="http://www.w3.org/2000/svg" width="1200" height="700" viewBox="0 0 1200 700" role="img" aria-label="Observability dashboard mock">
  <rect width="1200" height="700" fill="#f4f6f8"/>
  <rect x="40" y="40" width="1120" height="80" rx="12" fill="#1b1f2a"/>
  <text x="70" y="90" font-family="Arial, sans-serif" font-size="28" fill="#ffffff">E-Commerce Observability</text>

  <rect x="40" y="150" width="540" height="200" rx="12" fill="#ffffff" stroke="#d0d7de"/>
  <text x="70" y="190" font-family="Arial, sans-serif" font-size="18" fill="#1b1f2a">Order Service Up</text>
  <text x="70" y="250" font-family="Arial, sans-serif" font-size="56" fill="#2da44e">1</text>

  <rect x="620" y="150" width="540" height="200" rx="12" fill="#ffffff" stroke="#d0d7de"/>
  <text x="650" y="190" font-family="Arial, sans-serif" font-size="18" fill="#1b1f2a">Inventory Service Up</text>
  <text x="650" y="250" font-family="Arial, sans-serif" font-size="56" fill="#2da44e">1</text>

  <rect x="40" y="380" width="1120" height="260" rx="12" fill="#ffffff" stroke="#d0d7de"/>
  <text x="70" y="420" font-family="Arial, sans-serif" font-size="18" fill="#1b1f2a">HTTP Request Rate</text>
  <polyline points="80,590 140,540 220,560 300,500 380,520 460,470 540,490 620,450 700,470 780,430 860,440 940,400 1020,420 1120,380"
            fill="none" stroke="#0969da" stroke-width="4"/>
  <polyline points="80,600 140,580 220,590 300,560 380,570 460,540 540,550 620,520 700,530 780,500 860,510 940,480 1020,490 1120,460"
            fill="none" stroke="#bf8700" stroke-width="4"/>
  <text x="980" y="620" font-family="Arial, sans-serif" font-size="14" fill="#57606a">orders</text>
  <text x="980" y="640" font-family="Arial, sans-serif" font-size="14" fill="#57606a">inventory</text>
</svg>
