<svg xmlns="http://www.w3.org/2000/svg" width="1000" height="260" viewBox="0 0 1000 260">
  <defs>
    <marker id="arrow" markerWidth="10" markerHeight="10" refX="9" refY="3" orient="auto" markerUnits="strokeWidth">
      <path d="M0,0 L0,6 L9,3 z" fill="#2b2b2b" />
    </marker>
  </defs>

  <rect width="1000" height="260" fill="#f7f7f7" />

  <g font-family="Verdana, sans-serif" font-size="14" fill="#1f1f1f" stroke="#2b2b2b" stroke-width="1">
    <rect x="30" y="40" width="200" height="160" fill="#ffffff" />
    <text x="130" y="70" text-anchor="middle">artifacts/</text>
    <text x="130" y="100" text-anchor="middle">sbom.cdx.json</text>
    <text x="130" y="125" text-anchor="middle">trivy.json</text>
    <text x="130" y="150" text-anchor="middle">grype.json</text>
    <text x="130" y="175" text-anchor="middle">sbom.sig</text>

    <rect x="300" y="30" width="200" height="60" fill="#ffffff" />
    <text x="400" y="65" text-anchor="middle">storage/aws/</text>

    <rect x="300" y="100" width="200" height="60" fill="#ffffff" />
    <text x="400" y="135" text-anchor="middle">storage/azure/</text>

    <rect x="300" y="170" width="200" height="60" fill="#ffffff" />
    <text x="400" y="205" text-anchor="middle">storage/gcp/</text>

    <rect x="560" y="100" width="200" height="60" fill="#ffffff" />
    <text x="660" y="135" text-anchor="middle">backups/</text>

    <line x1="230" y1="80" x2="300" y2="60" marker-end="url(#arrow)" />
    <line x1="230" y1="120" x2="300" y2="130" marker-end="url(#arrow)" />
    <line x1="230" y1="160" x2="300" y2="200" marker-end="url(#arrow)" />

    <line x1="500" y1="130" x2="560" y2="130" marker-end="url(#arrow)" />
  </g>
</svg>
