<svg xmlns="http://www.w3.org/2000/svg" width="1200" height="300" viewBox="0 0 1200 300">
  <defs>
    <marker id="arrow" markerWidth="10" markerHeight="10" refX="9" refY="3" orient="auto" markerUnits="strokeWidth">
      <path d="M0,0 L0,6 L9,3 z" fill="#2b2b2b" />
    </marker>
  </defs>

  <rect width="1200" height="300" fill="#f7f7f7" />

  <g font-family="Verdana, sans-serif" font-size="14" fill="#1f1f1f" stroke="#2b2b2b" stroke-width="1">
    <rect x="20" y="40" width="120" height="60" fill="#ffffff" />
    <text x="80" y="75" text-anchor="middle">Developer</text>

    <rect x="170" y="40" width="120" height="60" fill="#ffffff" />
    <text x="230" y="75" text-anchor="middle">CI/CD</text>

    <rect x="320" y="40" width="140" height="60" fill="#ffffff" />
    <text x="390" y="70" text-anchor="middle">Build +</text>
    <text x="390" y="90" text-anchor="middle">Unit Tests</text>

    <rect x="490" y="40" width="120" height="60" fill="#ffffff" />
    <text x="550" y="75" text-anchor="middle">SBOM</text>

    <rect x="640" y="40" width="120" height="60" fill="#ffffff" />
    <text x="700" y="75" text-anchor="middle">Scans</text>

    <rect x="790" y="40" width="140" height="60" fill="#ffffff" />
    <text x="860" y="70" text-anchor="middle">Sign +</text>
    <text x="860" y="90" text-anchor="middle">Attest</text>

    <rect x="960" y="40" width="120" height="60" fill="#ffffff" />
    <text x="1020" y="75" text-anchor="middle">Policy Gate</text>

    <rect x="1030" y="140" width="140" height="60" fill="#ffffff" />
    <text x="1100" y="175" text-anchor="middle">Registry</text>

    <rect x="1030" y="220" width="140" height="60" fill="#ffffff" />
    <text x="1100" y="255" text-anchor="middle">Object Storage</text>

    <line x1="140" y1="70" x2="170" y2="70" marker-end="url(#arrow)" />
    <line x1="290" y1="70" x2="320" y2="70" marker-end="url(#arrow)" />
    <line x1="460" y1="70" x2="490" y2="70" marker-end="url(#arrow)" />
    <line x1="610" y1="70" x2="640" y2="70" marker-end="url(#arrow)" />
    <line x1="760" y1="70" x2="790" y2="70" marker-end="url(#arrow)" />
    <line x1="930" y1="70" x2="960" y2="70" marker-end="url(#arrow)" />

    <line x1="1020" y1="100" x2="1100" y2="140" marker-end="url(#arrow)" />
    <line x1="1020" y1="100" x2="1100" y2="220" marker-end="url(#arrow)" />
  </g>
</svg>
